<mxfile host="app.diagrams.net" modified="2023-01-18T09:06:19.068Z" agent="5.0 (Macintosh; Intel Mac OS X 10_15_7) AppleWebKit/605.1.15 (KHTML, like Gecko) Version/16.0 Safari/605.1.15" version="20.8.5" etag="9LcLx5qxFNJc0AjKBAF3" type="github">
  <diagram id="wl2DCxEHudBY5uCN74CR" name="Page-1">
    <mxGraphModel dx="1434" dy="922" grid="1" gridSize="10" guides="1" tooltips="1" connect="1" arrows="1" fold="1" page="1" pageScale="1" pageWidth="827" pageHeight="1169" math="0" shadow="0">
      <root>
        <mxCell id="0" />
        <mxCell id="1" parent="0" />
        <mxCell id="TRQy9jS9D7n3w-w6WIMg-1" value="SDK TA" style="rounded=1;whiteSpace=wrap;html=1;" vertex="1" parent="1">
          <mxGeometry x="120" y="120" width="80" height="40" as="geometry" />
        </mxCell>
        <mxCell id="TRQy9jS9D7n3w-w6WIMg-2" value="CORE TA" style="rounded=1;whiteSpace=wrap;html=1;" vertex="1" parent="1">
          <mxGeometry x="520" y="120" width="80" height="40" as="geometry" />
        </mxCell>
      </root>
    </mxGraphModel>
  </diagram>
</mxfile>
